HIERARCHY
ROOT Hips
{
	OFFSET 0.00000 0.00000 0.00000
	CHANNELS 6 Xposition Yposition Zposition Zrotation Yrotation Xrotation 
	JOINT LHipJoint
	{
		OFFSET 0 0 0
		CHANNELS 3 Zrotation Yrotation Xrotation
		JOINT LeftHip
		{
			OFFSET 2.36090 -1.39315 1.24752
			CHANNELS 3 Zrotation Yrotation Xrotation
			JOINT LeftKnee
			{
				OFFSET 2.06810 -5.68207 0.00000
				CHANNELS 3 Zrotation Yrotation Xrotation
				JOINT LeftAnkle
				{
					OFFSET 2.46631 -6.77613 0.00000
					CHANNELS 3 Zrotation Yrotation Xrotation
					JOINT LeftToe
					{
						OFFSET 0.26031 -0.71520 1.99545
						CHANNELS 3 Zrotation Yrotation Xrotation
						End Site
						{
							OFFSET 0.00000 -0.00000 1.05957
						}
					}
				}
			}
		}
	}
	JOINT RHipJoint
	{
		OFFSET 0 0 0
		CHANNELS 3 Zrotation Yrotation Xrotation
		JOINT RightHip
		{
			OFFSET -2.25243 -1.39315 1.24752
			CHANNELS 3 Zrotation Yrotation Xrotation
			JOINT RightKnee
			{
				OFFSET -2.17343 -5.97145 0.00000
				CHANNELS 3 Zrotation Yrotation Xrotation
				JOINT RightAnkle
				{
					OFFSET -2.52372 -6.93386 0.00000
					CHANNELS 3 Zrotation Yrotation Xrotation
					JOINT RightToe
					{
						OFFSET -0.22538 -0.61923 2.11447
						CHANNELS 3 Zrotation Yrotation Xrotation
						End Site
						{
							OFFSET -0.00000 -0.00000 1.10506
						}
					}
				}
			}
		}
	}
	JOINT lowerback
	{
		OFFSET 0 0 0
		CHANNELS 3 Zrotation Yrotation Xrotation
		JOINT Chest
		{
			OFFSET 0.01594 2.13103 0.08007
			CHANNELS 3 Zrotation Yrotation Xrotation
			JOINT Chest2
			{
				OFFSET 0.01393 2.09723 0.18338
				CHANNELS 3 Zrotation Yrotation Xrotation
				JOINT lowerneck
				{
					OFFSET 0 0 0
					CHANNELS 3 Zrotation Yrotation Xrotation
					JOINT Neck
					{
						OFFSET 0.05351 1.38915 0.32494
						CHANNELS 3 Zrotation Yrotation Xrotation
						JOINT Head
						{
							OFFSET 0.00711 1.45992 -0.21666
							CHANNELS 3 Zrotation Yrotation Xrotation
							End Site
							{
								OFFSET -0.00433 1.47702 -0.11056
							}
						}
					}
				}
				JOINT LeftCollar
				{
					OFFSET 0 0 0
					CHANNELS 3 Zrotation Yrotation Xrotation
					JOINT LeftShoulder
					{
						OFFSET 2.87198 0.92249 0.11132
CHANNELS 3 Zrotation Xrotation Yrotation
						JOINT LeftElbow
						{
OFFSET 0 -5.527310 0.000000
CHANNELS 3 Zrotation Xrotation Yrotation
							JOINT LeftWrist
							{
OFFSET 0 -3.110590 0.000000
CHANNELS 3 Zrotation Xrotation Yrotation
								JOINT lhand
								{
									OFFSET 0 0 0
CHANNELS 3 Zrotation Xrotation Yrotation
									JOINT LFingers
									{
OFFSET 0 -0.419630 0.000000
CHANNELS 3 Zrotation Xrotation Yrotation
										End Site
										{
OFFSET 0 -0.338310 0.000000
										}
									}
								}
								JOINT LThumb
								{
OFFSET 0 0.000000 0.000000
CHANNELS 3 Zrotation Xrotation Yrotation
									End Site
									{
OFFSET 0 -0.343480 0.343480
									}
								}
							}
						}
					}
				}
				JOINT RightCollar
				{
					OFFSET 0 0 0
					CHANNELS 3 Zrotation Yrotation Xrotation
					JOINT RightShoulder
					{
						OFFSET -2.94710 0.68072 0.32187
CHANNELS 3 Zrotation Xrotation Yrotation
						JOINT RightElbow
						{
OFFSET 0 -5.253960 -0.000000
CHANNELS 3 Zrotation Xrotation Yrotation
							JOINT RightWrist
							{
OFFSET 0 -3.105670 0.000000
CHANNELS 3 Zrotation Xrotation Yrotation
								JOINT rhand
								{
									OFFSET 0 0 0
CHANNELS 3 Zrotation Xrotation Yrotation
									JOINT RFingers
									{
OFFSET 0 -0.498680 0.000000
CHANNELS 3 Zrotation Xrotation Yrotation
										End Site
										{
OFFSET 0 -0.402040 0.000000
										}
									}
								}
								JOINT RThumb
								{
OFFSET 0 0.000000 0.000000
CHANNELS 3 Zrotation Xrotation Yrotation
									End Site
									{
OFFSET 0 -0.408180 0.408180
									}
								}
							}
						}
					}
				}
			}
		}
	}
}
MOTION
Frames: 4
Frame Time: 0.008333333333333333
9.657512 15.607086 5.881962 -3.291922 -13.733999 14.924178 0.000000 0.000000 0.000000 -19.920230 -14.680168 -7.886643 1.445879 7.601367 21.509729 0.632750 7.690081 -19.746322 2.451450 -9.749019 -28.167865 0.000000 0.000000 0.000000 20.027767 29.371775 -26.431045 -4.369041 -12.635842 38.020360 -0.812620 -0.825378 -17.350866 -0.097961 2.018135 -5.555853 -1.323404 -3.698608 -23.319505 2.862871 -4.868244 -2.590610 2.378748 -2.430723 10.522911 0.717222 5.262699 -13.934399 -0.008826 7.214461 25.428026 0.809181 3.349226 10.463176 0.000000 0.000000 0.000000 13.447988 -37.723197 -62.475607 154.487393 -36.723307 111.405472 43.559315 -50.067563 -0.999903 0.000000 0.000000 0.000000 -7.125000 0.000000 0.000000 13.485758 31.181165 4.670152 0.000000 0.000000 0.000000 -23.901158 10.674961 44.444537 -143.497184 -45.855920 -104.117691 -34.798118 6.594176 -5.951057 0.000000 0.000000 0.000000 7.125000 0.000000 0.000000 -5.929906 22.756201 -3.191139
9.624235 15.622032 5.889064 -3.624681 -13.952141 15.296752 0.000000 0.000000 0.000000 -19.440551 -14.813895 -7.974587 1.427632 7.555339 21.371399 0.605753 8.087167 -19.809160 2.447289 -9.741421 -28.143387 0.000000 0.000000 0.000000 20.429070 28.983594 -26.534662 -4.229241 -12.459311 37.376768 -0.804425 0.027085 -16.945375 -0.080335 1.828143 -5.031036 -1.070326 -3.636784 -23.678759 2.989559 -4.863631 -2.744028 2.364041 -2.419210 10.533408 0.612543 5.167281 -13.948014 0.157858 7.062109 25.553470 0.867882 3.286806 10.499631 0.000000 0.000000 0.000000 13.354068 -37.738371 -62.865789 154.448536 -36.762364 111.382211 43.732758 -50.055575 -0.792368 0.000000 0.000000 0.000000 -7.125000 0.000000 0.000000 13.583636 30.901979 4.799508 0.000000 0.000000 0.000000 -23.530948 11.293462 43.744006 -143.420192 -45.907850 -104.062414 -34.849398 6.705324 -5.713537 0.000000 0.000000 0.000000 7.125000 0.000000 0.000000 -5.992201 23.038432 -3.186143
9.598572 15.635924 5.898693 -3.938651 -14.314425 15.871154 0.000000 0.000000 0.000000 -18.975631 -14.930981 -8.263173 1.407475 7.504096 21.217650 0.584062 8.468187 -19.922539 2.422873 -9.696303 -27.998690 0.000000 0.000000 0.000000 20.643531 28.686511 -26.955221 -4.115530 -12.312581 36.846896 -0.798517 1.084123 -16.553639 -0.062108 1.607849 -4.423075 -0.768277 -3.505788 -24.262548 3.092886 -4.780096 -2.958846 2.313404 -2.366983 10.582681 0.667576 5.104038 -14.119225 0.187659 6.956811 25.892106 0.868202 3.239653 10.658573 0.000000 0.000000 0.000000 13.399155 -37.708880 -63.249864 154.518406 -36.692167 111.424002 43.950957 -50.013178 -0.821870 0.000000 0.000000 0.000000 -7.125000 0.000000 0.000000 13.759796 30.941147 4.851696 0.000000 0.000000 0.000000 -23.258502 11.691895 43.361110 -143.458363 -45.882111 -104.089872 -34.893166 7.175872 -5.689420 0.000000 0.000000 0.000000 7.125000 0.000000 0.000000 -6.026727 23.063957 -3.201164
9.577991 15.649117 5.911484 -4.039276 -14.738056 16.349038 0.000000 0.000000 0.000000 -18.810058 -14.955398 -8.239438 1.332646 7.309847 20.636675 0.543773 8.873707 -19.876135 2.399249 -9.652349 -27.857947 0.000000 0.000000 0.000000 20.635866 28.331011 -27.447116 -4.047823 -12.223756 36.528349 -0.796967 2.167953 -16.271926 -0.048550 1.422036 -3.910891 -0.681265 -3.385037 -24.760256 3.147025 -4.648770 -3.217827 2.352576 -2.300847 10.544321 0.775241 5.074583 -14.257039 0.161322 6.902016 26.263065 0.846073 3.214083 10.828932 0.000000 0.000000 0.000000 13.389672 -37.629955 -63.531467 154.614827 -36.595064 111.481543 44.044342 -50.265093 -0.829805 0.000000 0.000000 0.000000 -7.125000 0.000000 0.000000 13.834168 30.951523 4.875798 0.000000 0.000000 0.000000 -23.126179 11.948024 43.282862 -143.639660 -45.759351 -104.219882 -35.003371 7.535577 -5.825343 0.000000 0.000000 0.000000 7.125000 0.000000 0.000000 -6.092669 22.890821 -3.260811
